<svg width="167" height="167" viewBox="0 0 167 167" fill="none" xmlns="http://www.w3.org/2000/svg">
<g id="Ellipse 2175">
<mask id="path-1-inside-1_19633_70034" fill="white">
<path d="M166.326 83.9531C166.326 100.369 161.458 116.416 152.338 130.065C143.217 143.715 130.255 154.353 115.088 160.635C99.9221 166.917 83.2336 168.561 67.1332 165.358C51.0328 162.156 36.2436 154.251 24.6358 142.643C13.0281 131.035 5.12308 116.246 1.92051 100.146C-1.28207 84.0452 0.361609 67.3567 6.64368 52.1904C12.9258 37.0241 23.5641 24.0613 37.2134 14.9411C50.8626 5.82099 66.9098 0.953125 83.3257 0.953125V83.9531H166.326Z"/>
</mask>
<path d="M166.326 83.9531C166.326 100.369 161.458 116.416 152.338 130.065C143.217 143.715 130.255 154.353 115.088 160.635C99.9221 166.917 83.2336 168.561 67.1332 165.358C51.0328 162.156 36.2436 154.251 24.6358 142.643C13.0281 131.035 5.12308 116.246 1.92051 100.146C-1.28207 84.0452 0.361609 67.3567 6.64368 52.1904C12.9258 37.0241 23.5641 24.0613 37.2134 14.9411C50.8626 5.82099 66.9098 0.953125 83.3257 0.953125V83.9531H166.326Z" stroke="#BEC720" stroke-width="8" mask="url(#path-1-inside-1_19633_70034)"/>
</g>
</svg>
