<svg width="16" height="17" viewBox="0 0 16 17" fill="none" xmlns="http://www.w3.org/2000/svg">
<g id="mdi:progress-star-four-points">
<path id="Vector" d="M8.6667 3.16536V1.83203C11.7734 2.16536 14.22 4.62536 14.5667 7.73203C14.9667 11.392 12.3334 14.6854 8.6667 15.0854V13.752C11.0934 13.452 13 11.5387 13.3067 9.11203C13.3931 8.41681 13.3415 7.71139 13.155 7.03612C12.9685 6.36085 12.6506 5.72898 12.2197 5.17666C11.7887 4.62434 11.2531 4.16241 10.6434 3.81729C10.0338 3.47217 9.36205 3.25064 8.6667 3.16536ZM3.78003 3.2987C4.79059 2.46453 6.02864 1.95352 7.33337 1.83203V3.20536C6.38003 3.3387 5.48003 3.72536 4.73337 4.32536L3.78003 3.2987ZM1.3667 7.83203C1.49009 6.52657 2.00346 5.28845 2.84003 4.2787L3.79337 5.23203C3.2022 5.98488 2.82455 6.88295 2.70003 7.83203H1.3667ZM2.8467 12.7187C2.01848 11.7039 1.50621 10.4685 1.37337 9.16536H2.7067C2.8267 10.112 3.2067 11.012 3.79337 11.7654L2.8467 12.7187ZM3.78003 13.6587L4.7067 12.7454H4.73337C5.4867 13.332 6.3867 13.712 7.33337 13.832V15.1654C6.0267 15.0254 4.7867 14.4987 3.78003 13.6587ZM8.00003 11.832L9.04003 9.55203L11.3334 8.4987L9.04003 7.4587L8.00003 5.16536L6.95337 7.4587L4.6667 8.4987L6.95337 9.55203L8.00003 11.832Z" fill="#BEC720"/>
</g>
</svg>
