<svg width="22" height="48" viewBox="0 0 22 48" fill="none" xmlns="http://www.w3.org/2000/svg">
<g id="Vector">
<path d="M0 4C0 1.79086 1.79086 0 4 0C6.20914 0 8 1.79086 8 4C8 6.20914 6.20914 8 4 8C1.79086 8 0 6.20914 0 4Z" fill="#BEC720" fill-opacity="0.4"/>
<path d="M0 20C0 17.7909 1.79086 16 4 16C6.20914 16 8 17.7909 8 20C8 22.2091 6.20914 24 4 24C1.79086 24 0 22.2091 0 20Z" fill="#BEC720" fill-opacity="0.4"/>
<path d="M0 36C0 33.7909 1.79086 32 4 32C6.20914 32 8 33.7909 8 36C8 38.2091 6.20914 40 4 40C1.79086 40 0 38.2091 0 36Z" fill="#BEC720" fill-opacity="0.4"/>
<path d="M14 12C14 9.79086 15.7909 8 18 8C20.2091 8 22 9.79086 22 12C22 14.2091 20.2091 16 18 16C15.7909 16 14 14.2091 14 12Z" fill="#BEC720" fill-opacity="0.4"/>
<path d="M14 28C14 25.7909 15.7909 24 18 24C20.2091 24 22 25.7909 22 28C22 30.2091 20.2091 32 18 32C15.7909 32 14 30.2091 14 28Z" fill="#BEC720" fill-opacity="0.4"/>
<path d="M14 44C14 41.7909 15.7909 40 18 40C20.2091 40 22 41.7909 22 44C22 46.2091 20.2091 48 18 48C15.7909 48 14 46.2091 14 44Z" fill="#BEC720" fill-opacity="0.4"/>
</g>
</svg>
